<?xml version="1.0" encoding="UTF-8" standalone="no"?>
<svg
   xmlns:dc="http://purl.org/dc/elements/1.1/"
   xmlns:cc="http://creativecommons.org/ns#"
   xmlns:rdf="http://www.w3.org/1999/02/22-rdf-syntax-ns#"
   xmlns:svg="http://www.w3.org/2000/svg"
   xmlns="http://www.w3.org/2000/svg"
   width="269.1557"
   height="267.25497"
   viewBox="0 0 269.15568 267.25497"
   id="svg2"
   version="1.1">
  <defs
     id="defs4" />
  <metadata
     id="metadata7">
    <rdf:RDF>
      <cc:Work
         rdf:about="">
        <dc:format>image/svg+xml</dc:format>
        <dc:type
           rdf:resource="http://purl.org/dc/dcmitype/StillImage" />
        <dc:title></dc:title>
      </cc:Work>
    </rdf:RDF>
  </metadata>
  <ellipse
     style="fill:none;fill-opacity:0.84577116;stroke:#c6c6c6;stroke-width:10;stroke-miterlimit:4;stroke-dasharray:none;stroke-opacity:1"
     id="ellipse4453"
     cx="134.57779"
     cy="133.62749"
     rx="129.57785"
     ry="128.62749" />
  <ellipse
     ry="52.336891"
     rx="51.533298"
     cy="130.76064"
     cx="136.01736"
     id="ellipse4595"
     style="fill:#262626;fill-opacity:1;stroke:none;stroke-width:0.92699999;stroke-miterlimit:4;stroke-dasharray:none;stroke-opacity:1" />
  <path
     style="fill:#141414;fill-opacity:1;stroke:none;stroke-width:0.92699999;stroke-miterlimit:4;stroke-dasharray:none;stroke-opacity:1"
     d="m 134.98304,80.438909 a 51.533298,52.336891 0 0 0 -51.533207,52.337891 51.533298,52.336891 0 0 0 25.593747,45.16211 51.533298,52.336891 0 0 1 0.19922,-4.01953 51.533298,52.336891 0 0 1 0.76953,-5.17187 51.533298,52.336891 0 0 1 1.2754,-5.06836 51.533298,52.336891 0 0 1 1.76562,-4.91407 51.533298,52.336891 0 0 1 2.24023,-4.71093 51.533298,52.336891 0 0 1 2.69336,-4.46094 51.533298,52.336891 0 0 1 3.11719,-4.16406 51.533298,52.336891 0 0 1 3.51172,-3.82813 51.533298,52.336891 0 0 1 3.86914,-3.45312 51.533298,52.336891 0 0 1 4.18945,-3.04297 51.533298,52.336891 0 0 1 4.46875,-2.60352 51.533298,52.336891 0 0 1 4.70118,-2.13672 51.533298,52.336891 0 0 1 4.88867,-1.64843 51.533298,52.336891 0 0 1 5.02734,-1.14649 51.533298,52.336891 0 0 1 5.11328,-0.63086 51.533298,52.336891 0 0 1 3.64453,-0.13086 51.533298,52.336891 0 0 1 5.14454,0.26172 51.533298,52.336891 0 0 1 5.09374,0.78125 51.533298,52.336891 0 0 1 4.99219,1.29492 51.533298,52.336891 0 0 1 4.83789,1.79297 51.533298,52.336891 0 0 1 4.63868,2.27735 51.533298,52.336891 0 0 1 1.23242,0.76758 51.533298,52.336891 0 0 0 0.0586,-1.20704 51.533298,52.336891 0 0 0 -51.5332,-52.337891 z"
     id="path4597" />
  <path
     style="color:#000000;font-style:normal;font-variant:normal;font-weight:normal;font-stretch:normal;font-size:medium;line-height:normal;font-family:sans-serif;text-indent:0;text-align:start;text-decoration:none;text-decoration-line:none;text-decoration-style:solid;text-decoration-color:#000000;letter-spacing:normal;word-spacing:normal;text-transform:none;direction:ltr;block-progression:tb;writing-mode:lr-tb;baseline-shift:baseline;text-anchor:start;white-space:normal;clip-rule:nonzero;display:inline;overflow:visible;visibility:visible;opacity:1;isolation:auto;mix-blend-mode:normal;color-interpolation:sRGB;color-interpolation-filters:linearRGB;solid-color:#000000;solid-opacity:1;fill:none;fill-opacity:1;fill-rule:nonzero;stroke:#525252;stroke-width:10;stroke-linecap:butt;stroke-linejoin:miter;stroke-miterlimit:4;stroke-dasharray:none;stroke-dashoffset:0;stroke-opacity:1;color-rendering:auto;image-rendering:auto;shape-rendering:auto;text-rendering:auto;enable-background:accumulate"
     d="m 88.363193,159.8738 c 14.735937,25.85955 47.388467,35.08964 72.885867,20.56006 25.49741,-14.52958 34.20283,-47.3273 19.46688,-73.18685 m -2.80505,1.59844 c 13.88575,24.36758 5.69922,55.13241 -18.25931,68.78506 -23.95851,13.65265 -54.5976,5.01242 -68.483347,-19.35515"
     id="path4599" />
  <path
     id="path4601"
     d="M 180.79239,107.38117 C 166.05645,81.521619 133.40392,72.291529 107.90652,86.821109 82.409113,101.35069 73.703693,134.14841 88.439643,160.00796 m 2.80505,-1.59844 c -13.88575,-24.36758 -5.69922,-55.13241 18.259307,-68.785061 23.95851,-13.65265 54.5976,-5.01242 68.48335,19.355151"
     style="color:#000000;font-style:normal;font-variant:normal;font-weight:normal;font-stretch:normal;font-size:medium;line-height:normal;font-family:sans-serif;text-indent:0;text-align:start;text-decoration:none;text-decoration-line:none;text-decoration-style:solid;text-decoration-color:#000000;letter-spacing:normal;word-spacing:normal;text-transform:none;direction:ltr;block-progression:tb;writing-mode:lr-tb;baseline-shift:baseline;text-anchor:start;white-space:normal;clip-rule:nonzero;display:inline;overflow:visible;visibility:visible;opacity:1;isolation:auto;mix-blend-mode:normal;color-interpolation:sRGB;color-interpolation-filters:linearRGB;solid-color:#000000;solid-opacity:1;fill:#919191;fill-opacity:1;fill-rule:nonzero;stroke:#393939;stroke-width:10;stroke-linecap:butt;stroke-linejoin:miter;stroke-miterlimit:4;stroke-dasharray:none;stroke-dashoffset:0;stroke-opacity:1;color-rendering:auto;image-rendering:auto;shape-rendering:auto;text-rendering:auto;enable-background:accumulate" />
</svg>
