<?xml version="1.0" encoding="UTF-8" standalone="no"?>
<svg
   xmlns:dc="http://purl.org/dc/elements/1.1/"
   xmlns:cc="http://creativecommons.org/ns#"
   xmlns:rdf="http://www.w3.org/1999/02/22-rdf-syntax-ns#"
   xmlns:svg="http://www.w3.org/2000/svg"
   xmlns="http://www.w3.org/2000/svg"
   width="269.1557"
   height="267.25497"
   viewBox="0 0 269.15568 267.25497"
   id="svg2"
   version="1.1">
  <defs
     id="defs4" />
  <metadata
     id="metadata7">
    <rdf:RDF>
      <cc:Work
         rdf:about="">
        <dc:format>image/svg+xml</dc:format>
        <dc:type
           rdf:resource="http://purl.org/dc/dcmitype/StillImage" />
        <dc:title></dc:title>
      </cc:Work>
    </rdf:RDF>
  </metadata>
  <ellipse
     style="fill:none;fill-opacity:0.84577116;stroke:#cecece;stroke-width:10;stroke-miterlimit:4;stroke-dasharray:none;stroke-opacity:1"
     id="ellipse4473"
     cx="134.57779"
     cy="133.62749"
     rx="129.57785"
     ry="128.62749" />
  <circle
     r="102.14286"
     cy="133.62749"
     cx="134.5773"
     id="circle4475"
     style="fill:#28c833;fill-opacity:1;stroke:none;stroke-width:0;stroke-miterlimit:4;stroke-dasharray:none;stroke-opacity:1" />
  <circle
     style="fill:#ffffff;fill-opacity:0.55414016;stroke:none;stroke-width:0;stroke-miterlimit:4;stroke-dasharray:none;stroke-opacity:1"
     id="circle4477"
     cx="100.50589"
     cy="90.627457"
     r="10.357142" />
  <path
     style="fill:#259b2d;fill-opacity:0.15286626;stroke:none;stroke-width:0;stroke-miterlimit:4;stroke-dasharray:none;stroke-opacity:1"
     d="m 40.447679,172.31833 a 102.14286,102.14286 0 0 0 94.128901,62.73828 102.14286,102.14286 0 0 0 102.1445,-102.14258 102.14286,102.14286 0 0 0 -31.584,-73.691431 102.14286,102.14286 0 0 1 1.0703,2.39258 102.14286,102.14286 0 0 1 3.2188,9.68945 102.14286,102.14286 0 0 1 2.2363,9.96094 102.14286,102.14286 0 0 1 1.2305,10.13674 102.14286,102.14286 0 0 1 0.2558,7.22461 102.14286,102.14286 0 0 1 -0.5097,10.197271 102.14286,102.14286 0 0 1 -1.5254,10.0957 102.14286,102.14286 0 0 1 -2.5274,9.89258 102.14286,102.14286 0 0 1 -3.5,9.59179 102.14286,102.14286 0 0 1 -4.4414,9.19336 102.14286,102.14286 0 0 1 -5.3359,8.70313 102.14286,102.14286 0 0 1 -6.1797,8.1289 102.14286,102.14286 0 0 1 -6.959,7.47071 102.14286,102.14286 0 0 1 -7.6718,6.73828 102.14286,102.14286 0 0 1 -8.3047,5.93945 102.14286,102.14286 0 0 1 -8.8555,5.08008 102.14286,102.14286 0 0 1 -9.3203,4.16992 102.14286,102.14286 0 0 1 -9.6895,3.2207 102.14286,102.14286 0 0 1 -9.9609,2.23438 102.14286,102.14286 0 0 1 -10.1367,1.23047 102.14286,102.14286 0 0 1 -7.2246,0.25586 102.14286,102.14286 0 0 1 -10.1973,-0.50977 102.14286,102.14286 0 0 1 -10.095701,-1.52539 102.14286,102.14286 0 0 1 -9.8926,-2.52539 102.14286,102.14286 0 0 1 -9.5918,-3.50195 102.14286,102.14286 0 0 1 -9.1933,-4.44141 102.14286,102.14286 0 0 1 -8.7032,-5.33594 102.14286,102.14286 0 0 1 -8.1289,-6.17968 102.14286,102.14286 0 0 1 -4.7558,-4.43164 z"
     id="path4479" />
</svg>
