<?xml version="1.0" encoding="UTF-8" standalone="no"?>
<svg
   xmlns:dc="http://purl.org/dc/elements/1.1/"
   xmlns:cc="http://creativecommons.org/ns#"
   xmlns:rdf="http://www.w3.org/1999/02/22-rdf-syntax-ns#"
   xmlns:svg="http://www.w3.org/2000/svg"
   xmlns="http://www.w3.org/2000/svg"
   xmlns:sodipodi="http://sodipodi.sourceforge.net/DTD/sodipodi-0.dtd"
   xmlns:inkscape="http://www.inkscape.org/namespaces/inkscape"
   version="1.1"
   id="svg2"
   viewBox="0 0 1499.9999 503.4772"
   height="503.4772"
   width="1500"
   inkscape:version="0.91 r13725"
   sodipodi:docname="all_states_of_peg.svg">
  <sodipodi:namedview
     pagecolor="#ffffff"
     bordercolor="#666666"
     borderopacity="1"
     objecttolerance="10"
     gridtolerance="10"
     guidetolerance="10"
     inkscape:pageopacity="0"
     inkscape:pageshadow="2"
     inkscape:window-width="2065"
     inkscape:window-height="1040"
     id="namedview9"
     showgrid="false"
     fit-margin-top="0"
     fit-margin-left="0"
     fit-margin-right="0"
     fit-margin-bottom="0"
     inkscape:zoom="0.26305732"
     inkscape:cx="1639.4318"
     inkscape:cy="-284.37738"
     inkscape:window-x="0"
     inkscape:window-y="0"
     inkscape:window-maximized="0"
     inkscape:current-layer="svg2" />
  <defs
     id="defs4" />
  <metadata
     id="metadata7">
    <rdf:RDF>
      <cc:Work
         rdf:about="">
        <dc:format>image/svg+xml</dc:format>
        <dc:type
           rdf:resource="http://purl.org/dc/dcmitype/StillImage" />
        <dc:title></dc:title>
      </cc:Work>
    </rdf:RDF>
  </metadata>
  <rect
     style="fill:#000000;fill-opacity:1;stroke:none;stroke-width:1;stroke-miterlimit:4;stroke-dasharray:none;stroke-opacity:1"
     id="rect4416"
     width="1464.5096"
     height="588.27484"
     x="22.780739"
     y="-32.741867" />
  <ellipse
     ry="128.62749"
     rx="129.57785"
     cy="224.38991"
     cx="544.23859"
     id="ellipse4453"
     style="fill:none;fill-opacity:0.84577113;stroke:#c6c6c6;stroke-width:10;stroke-miterlimit:4;stroke-dasharray:none;stroke-opacity:1" />
  <circle
     r="102.14286"
     cy="224.38991"
     cx="889.22003"
     id="circle4465"
     style="fill:#28c833;fill-opacity:1;stroke:none;stroke-width:0;stroke-miterlimit:4;stroke-dasharray:none;stroke-opacity:1" />
  <circle
     style="fill:#ffffff;fill-opacity:0.55414016;stroke:none;stroke-width:0;stroke-miterlimit:4;stroke-dasharray:none;stroke-opacity:1"
     id="circle4467"
     cx="855.14862"
     cy="181.38988"
     r="10.357142" />
  <path
     inkscape:connector-curvature="0"
     style="fill:#259b2d;fill-opacity:0.15286626;stroke:none;stroke-width:0;stroke-miterlimit:4;stroke-dasharray:none;stroke-opacity:1"
     d="m 795.09033,263.08075 a 102.14286,102.14286 0 0 0 94.1289,62.73828 102.14286,102.14286 0 0 0 102.14454,-102.14258 102.14286,102.14286 0 0 0 -31.58399,-73.69143 102.14286,102.14286 0 0 1 1.07031,2.39258 102.14286,102.14286 0 0 1 3.21875,9.68945 102.14286,102.14286 0 0 1 2.23633,9.96094 102.14286,102.14286 0 0 1 1.23047,10.13674 102.14286,102.14286 0 0 1 0.25586,7.22461 102.14286,102.14286 0 0 1 -0.50977,10.19727 102.14286,102.14286 0 0 1 -1.52539,10.0957 102.14286,102.14286 0 0 1 -2.52734,9.89258 102.14286,102.14286 0 0 1 -3.5,9.59179 102.14286,102.14286 0 0 1 -4.44141,9.19336 102.14286,102.14286 0 0 1 -5.33593,8.70313 102.14286,102.14286 0 0 1 -6.17969,8.1289 102.14286,102.14286 0 0 1 -6.95899,7.47071 102.14286,102.14286 0 0 1 -7.67187,6.73828 102.14286,102.14286 0 0 1 -8.30469,5.93945 102.14286,102.14286 0 0 1 -8.85547,5.08008 102.14286,102.14286 0 0 1 -9.32031,4.16992 102.14286,102.14286 0 0 1 -9.68945,3.2207 102.14286,102.14286 0 0 1 -9.96094,2.23438 102.14286,102.14286 0 0 1 -10.13672,1.23047 102.14286,102.14286 0 0 1 -7.22461,0.25586 102.14286,102.14286 0 0 1 -10.19726,-0.50977 102.14286,102.14286 0 0 1 -10.09572,-1.52539 102.14286,102.14286 0 0 1 -9.89256,-2.52539 102.14286,102.14286 0 0 1 -9.5918,-3.50195 102.14286,102.14286 0 0 1 -9.19336,-4.44141 102.14286,102.14286 0 0 1 -8.70313,-5.33594 102.14286,102.14286 0 0 1 -8.1289,-6.17968 102.14286,102.14286 0 0 1 -4.75586,-4.43164 z"
     id="path4469" />
  <ellipse
     ry="128.62749"
     rx="129.57785"
     cy="224.38991"
     cx="1235.1527"
     id="ellipse4473"
     style="fill:none;fill-opacity:0.84577113;stroke:#cecece;stroke-width:10;stroke-miterlimit:4;stroke-dasharray:none;stroke-opacity:1" />
  <circle
     style="fill:#28c833;fill-opacity:1;stroke:none;stroke-width:0;stroke-miterlimit:4;stroke-dasharray:none;stroke-opacity:1"
     id="circle4475"
     cx="1235.1522"
     cy="224.38991"
     r="102.14286" />
  <circle
     r="10.357142"
     cy="181.38988"
     cx="1201.0808"
     id="circle4477"
     style="fill:#ffffff;fill-opacity:0.55414016;stroke:none;stroke-width:0;stroke-miterlimit:4;stroke-dasharray:none;stroke-opacity:1" />
  <path
     id="path4479"
     d="m 1141.0226,263.08075 a 102.14286,102.14286 0 0 0 94.1289,62.73828 102.14286,102.14286 0 0 0 102.1445,-102.14258 102.14286,102.14286 0 0 0 -31.584,-73.69143 102.14286,102.14286 0 0 1 1.0703,2.39258 102.14286,102.14286 0 0 1 3.2188,9.68945 102.14286,102.14286 0 0 1 2.2363,9.96094 102.14286,102.14286 0 0 1 1.2305,10.13674 102.14286,102.14286 0 0 1 0.2558,7.22461 102.14286,102.14286 0 0 1 -0.5097,10.19727 102.14286,102.14286 0 0 1 -1.5254,10.0957 102.14286,102.14286 0 0 1 -2.5274,9.89258 102.14286,102.14286 0 0 1 -3.5,9.59179 102.14286,102.14286 0 0 1 -4.4414,9.19336 102.14286,102.14286 0 0 1 -5.3359,8.70313 102.14286,102.14286 0 0 1 -6.1797,8.1289 102.14286,102.14286 0 0 1 -6.959,7.47071 102.14286,102.14286 0 0 1 -7.6718,6.73828 102.14286,102.14286 0 0 1 -8.3047,5.93945 102.14286,102.14286 0 0 1 -8.8555,5.08008 102.14286,102.14286 0 0 1 -9.3203,4.16992 102.14286,102.14286 0 0 1 -9.6895,3.2207 102.14286,102.14286 0 0 1 -9.9609,2.23438 102.14286,102.14286 0 0 1 -10.1367,1.23047 102.14286,102.14286 0 0 1 -7.2246,0.25586 102.14286,102.14286 0 0 1 -10.1973,-0.50977 102.14286,102.14286 0 0 1 -10.0957,-1.52539 102.14286,102.14286 0 0 1 -9.8926,-2.52539 102.14286,102.14286 0 0 1 -9.5918,-3.50195 102.14286,102.14286 0 0 1 -9.1933,-4.44141 102.14286,102.14286 0 0 1 -8.7032,-5.33594 102.14286,102.14286 0 0 1 -8.1289,-6.17968 102.14286,102.14286 0 0 1 -4.7558,-4.43164 z"
     style="fill:#259b2d;fill-opacity:0.15286626;stroke:none;stroke-width:0;stroke-miterlimit:4;stroke-dasharray:none;stroke-opacity:1"
     inkscape:connector-curvature="0" />
  <g
     id="g4587">
    <ellipse
       style="fill:#262626;fill-opacity:1;stroke:none;stroke-width:0.927;stroke-miterlimit:4;stroke-dasharray:none;stroke-opacity:1"
       id="ellipse4485"
       cx="205.9093"
       cy="224.38991"
       rx="51.533298"
       ry="52.336891" />
    <path
       inkscape:connector-curvature="0"
       id="ellipse4580"
       d="m 204.875,174.06818 a 51.533298,52.336891 0 0 0 -51.53321,52.33789 51.533298,52.336891 0 0 0 25.59375,45.16211 51.533298,52.336891 0 0 1 0.19922,-4.01953 51.533298,52.336891 0 0 1 0.76953,-5.17187 51.533298,52.336891 0 0 1 1.2754,-5.06836 51.533298,52.336891 0 0 1 1.76562,-4.91407 51.533298,52.336891 0 0 1 2.24023,-4.71093 51.533298,52.336891 0 0 1 2.69336,-4.46094 51.533298,52.336891 0 0 1 3.11719,-4.16406 51.533298,52.336891 0 0 1 3.51172,-3.82813 51.533298,52.336891 0 0 1 3.86914,-3.45312 51.533298,52.336891 0 0 1 4.18945,-3.04297 51.533298,52.336891 0 0 1 4.46875,-2.60352 51.533298,52.336891 0 0 1 4.70118,-2.13672 51.533298,52.336891 0 0 1 4.88867,-1.64843 51.533298,52.336891 0 0 1 5.02734,-1.14649 51.533298,52.336891 0 0 1 5.11328,-0.63086 51.533298,52.336891 0 0 1 3.64453,-0.13086 51.533298,52.336891 0 0 1 5.14454,0.26172 51.533298,52.336891 0 0 1 5.09374,0.78125 51.533298,52.336891 0 0 1 4.99219,1.29492 51.533298,52.336891 0 0 1 4.83789,1.79297 51.533298,52.336891 0 0 1 4.63868,2.27735 51.533298,52.336891 0 0 1 1.23242,0.76758 51.533298,52.336891 0 0 0 0.0586,-1.20704 51.533298,52.336891 0 0 0 -51.5332,-52.33789 z"
       style="fill:#141414;fill-opacity:1;stroke:none;stroke-width:0.92699999;stroke-miterlimit:4;stroke-dasharray:none;stroke-opacity:1" />
    <path
       sodipodi:nodetypes="csccsc"
       inkscape:connector-curvature="0"
       id="ellipse4546"
       d="m 158.25515,253.50307 c 14.73594,25.85955 47.38847,35.08964 72.88587,20.56006 25.49741,-14.52958 34.20283,-47.3273 19.46688,-73.18685 m -2.80505,1.59844 c 13.88575,24.36758 5.69922,55.13241 -18.25931,68.78506 -23.95851,13.65265 -54.5976,5.01242 -68.48335,-19.35515"
       style="color:#000000;font-style:normal;font-variant:normal;font-weight:normal;font-stretch:normal;font-size:medium;line-height:normal;font-family:sans-serif;text-indent:0;text-align:start;text-decoration:none;text-decoration-line:none;text-decoration-style:solid;text-decoration-color:#000000;letter-spacing:normal;word-spacing:normal;text-transform:none;direction:ltr;block-progression:tb;writing-mode:lr-tb;baseline-shift:baseline;text-anchor:start;white-space:normal;clip-rule:nonzero;display:inline;overflow:visible;visibility:visible;opacity:1;isolation:auto;mix-blend-mode:normal;color-interpolation:sRGB;color-interpolation-filters:linearRGB;solid-color:#000000;solid-opacity:1;fill:none;fill-opacity:1;fill-rule:nonzero;stroke:#525252;stroke-width:10;stroke-linecap:butt;stroke-linejoin:miter;stroke-miterlimit:4;stroke-dasharray:none;stroke-dashoffset:0;stroke-opacity:1;color-rendering:auto;image-rendering:auto;shape-rendering:auto;text-rendering:auto;enable-background:accumulate" />
    <path
       style="color:#000000;font-style:normal;font-variant:normal;font-weight:normal;font-stretch:normal;font-size:medium;line-height:normal;font-family:sans-serif;text-indent:0;text-align:start;text-decoration:none;text-decoration-line:none;text-decoration-style:solid;text-decoration-color:#000000;letter-spacing:normal;word-spacing:normal;text-transform:none;direction:ltr;block-progression:tb;writing-mode:lr-tb;baseline-shift:baseline;text-anchor:start;white-space:normal;clip-rule:nonzero;display:inline;overflow:visible;visibility:visible;opacity:1;isolation:auto;mix-blend-mode:normal;color-interpolation:sRGB;color-interpolation-filters:linearRGB;solid-color:#000000;solid-opacity:1;fill:#919191;fill-opacity:1;fill-rule:nonzero;stroke:#393939;stroke-width:10;stroke-linecap:butt;stroke-linejoin:miter;stroke-miterlimit:4;stroke-dasharray:none;stroke-dashoffset:0;stroke-opacity:1;color-rendering:auto;image-rendering:auto;shape-rendering:auto;text-rendering:auto;enable-background:accumulate"
       d="m 250.68435,201.01044 c -14.73594,-25.85955 -47.38847,-35.08964 -72.88587,-20.56006 -25.49741,14.52958 -34.20283,47.3273 -19.46688,73.18685 m 2.80505,-1.59844 c -13.88575,-24.36758 -5.69922,-55.13241 18.25931,-68.78506 23.95851,-13.65265 54.5976,-5.01242 68.48335,19.35515"
       id="path4552"
       inkscape:connector-curvature="0"
       sodipodi:nodetypes="csccsc" />
  </g>
  <g
     id="g4593"
     transform="translate(339.76884,-2.8668472)">
    <ellipse
       ry="52.336891"
       rx="51.533298"
       cy="224.38991"
       cx="205.9093"
       id="ellipse4595"
       style="fill:#262626;fill-opacity:1;stroke:none;stroke-width:0.92699999;stroke-miterlimit:4;stroke-dasharray:none;stroke-opacity:1" />
    <path
       style="fill:#141414;fill-opacity:1;stroke:none;stroke-width:0.92699999;stroke-miterlimit:4;stroke-dasharray:none;stroke-opacity:1"
       d="m 204.875,174.06818 a 51.533298,52.336891 0 0 0 -51.53321,52.33789 51.533298,52.336891 0 0 0 25.59375,45.16211 51.533298,52.336891 0 0 1 0.19922,-4.01953 51.533298,52.336891 0 0 1 0.76953,-5.17187 51.533298,52.336891 0 0 1 1.2754,-5.06836 51.533298,52.336891 0 0 1 1.76562,-4.91407 51.533298,52.336891 0 0 1 2.24023,-4.71093 51.533298,52.336891 0 0 1 2.69336,-4.46094 51.533298,52.336891 0 0 1 3.11719,-4.16406 51.533298,52.336891 0 0 1 3.51172,-3.82813 51.533298,52.336891 0 0 1 3.86914,-3.45312 51.533298,52.336891 0 0 1 4.18945,-3.04297 51.533298,52.336891 0 0 1 4.46875,-2.60352 51.533298,52.336891 0 0 1 4.70118,-2.13672 51.533298,52.336891 0 0 1 4.88867,-1.64843 51.533298,52.336891 0 0 1 5.02734,-1.14649 51.533298,52.336891 0 0 1 5.11328,-0.63086 51.533298,52.336891 0 0 1 3.64453,-0.13086 51.533298,52.336891 0 0 1 5.14454,0.26172 51.533298,52.336891 0 0 1 5.09374,0.78125 51.533298,52.336891 0 0 1 4.99219,1.29492 51.533298,52.336891 0 0 1 4.83789,1.79297 51.533298,52.336891 0 0 1 4.63868,2.27735 51.533298,52.336891 0 0 1 1.23242,0.76758 51.533298,52.336891 0 0 0 0.0586,-1.20704 51.533298,52.336891 0 0 0 -51.5332,-52.33789 z"
       id="path4597"
       inkscape:connector-curvature="0" />
    <path
       style="color:#000000;font-style:normal;font-variant:normal;font-weight:normal;font-stretch:normal;font-size:medium;line-height:normal;font-family:sans-serif;text-indent:0;text-align:start;text-decoration:none;text-decoration-line:none;text-decoration-style:solid;text-decoration-color:#000000;letter-spacing:normal;word-spacing:normal;text-transform:none;direction:ltr;block-progression:tb;writing-mode:lr-tb;baseline-shift:baseline;text-anchor:start;white-space:normal;clip-rule:nonzero;display:inline;overflow:visible;visibility:visible;opacity:1;isolation:auto;mix-blend-mode:normal;color-interpolation:sRGB;color-interpolation-filters:linearRGB;solid-color:#000000;solid-opacity:1;fill:none;fill-opacity:1;fill-rule:nonzero;stroke:#525252;stroke-width:10;stroke-linecap:butt;stroke-linejoin:miter;stroke-miterlimit:4;stroke-dasharray:none;stroke-dashoffset:0;stroke-opacity:1;color-rendering:auto;image-rendering:auto;shape-rendering:auto;text-rendering:auto;enable-background:accumulate"
       d="m 158.25515,253.50307 c 14.73594,25.85955 47.38847,35.08964 72.88587,20.56006 25.49741,-14.52958 34.20283,-47.3273 19.46688,-73.18685 m -2.80505,1.59844 c 13.88575,24.36758 5.69922,55.13241 -18.25931,68.78506 -23.95851,13.65265 -54.5976,5.01242 -68.48335,-19.35515"
       id="path4599"
       inkscape:connector-curvature="0"
       sodipodi:nodetypes="csccsc" />
    <path
       sodipodi:nodetypes="csccsc"
       inkscape:connector-curvature="0"
       id="path4601"
       d="m 250.68435,201.01044 c -14.73594,-25.85955 -47.38847,-35.08964 -72.88587,-20.56006 -25.49741,14.52958 -34.20283,47.3273 -19.46688,73.18685 m 2.80505,-1.59844 c -13.88575,-24.36758 -5.69922,-55.13241 18.25931,-68.78506 23.95851,-13.65265 54.5976,-5.01242 68.48335,19.35515"
       style="color:#000000;font-style:normal;font-variant:normal;font-weight:normal;font-stretch:normal;font-size:medium;line-height:normal;font-family:sans-serif;text-indent:0;text-align:start;text-decoration:none;text-decoration-line:none;text-decoration-style:solid;text-decoration-color:#000000;letter-spacing:normal;word-spacing:normal;text-transform:none;direction:ltr;block-progression:tb;writing-mode:lr-tb;baseline-shift:baseline;text-anchor:start;white-space:normal;clip-rule:nonzero;display:inline;overflow:visible;visibility:visible;opacity:1;isolation:auto;mix-blend-mode:normal;color-interpolation:sRGB;color-interpolation-filters:linearRGB;solid-color:#000000;solid-opacity:1;fill:#919191;fill-opacity:1;fill-rule:nonzero;stroke:#393939;stroke-width:10;stroke-linecap:butt;stroke-linejoin:miter;stroke-miterlimit:4;stroke-dasharray:none;stroke-dashoffset:0;stroke-opacity:1;color-rendering:auto;image-rendering:auto;shape-rendering:auto;text-rendering:auto;enable-background:accumulate" />
  </g>
</svg>
