<svg xmlns="http://www.w3.org/2000/svg" width="269.156" height="267.255" viewBox="0 0 269.15568 267.25497">
    <ellipse cx="134.578" cy="133.627" rx="129.578" ry="128.627" fill="none" stroke="#c6c6c6" stroke-width="10"/>
    <ellipse ry="52.337" rx="51.533" cy="130.761" cx="136.017" fill="#262626"/>
    <path d="M134.983 80.439a51.533 52.337 0 0 0-51.533 52.338 51.533 52.337 0 0 0 25.594 45.162 51.533 52.337 0 0 1 .199-4.02 51.533 52.337 0 0 1 .77-5.171 51.533 52.337 0 0 1 1.275-5.069 51.533 52.337 0 0 1 1.765-4.914 51.533 52.337 0 0 1 2.24-4.71 51.533 52.337 0 0 1 2.694-4.462 51.533 52.337 0 0 1 3.117-4.164 51.533 52.337 0 0 1 3.512-3.828 51.533 52.337 0 0 1 3.869-3.453 51.533 52.337 0 0 1 4.19-3.043 51.533 52.337 0 0 1 4.468-2.604 51.533 52.337 0 0 1 4.701-2.136 51.533 52.337 0 0 1 4.889-1.649 51.533 52.337 0 0 1 5.027-1.146 51.533 52.337 0 0 1 5.114-.631 51.533 52.337 0 0 1 3.644-.131 51.533 52.337 0 0 1 5.145.262 51.533 52.337 0 0 1 5.093.781 51.533 52.337 0 0 1 4.993 1.295 51.533 52.337 0 0 1 4.838 1.793 51.533 52.337 0 0 1 4.638 2.277 51.533 52.337 0 0 1 1.233.768 51.533 52.337 0 0 0 .058-1.207 51.533 52.337 0 0 0-51.533-52.338z" fill="#141414"/>
    <path style="line-height:normal;text-indent:0;text-align:start;text-decoration-line:none;text-decoration-style:solid;text-decoration-color:#000;text-transform:none;block-progression:tb;isolation:auto;mix-blend-mode:normal" d="M88.363 159.874c14.736 25.86 47.389 35.09 72.886 20.56 25.497-14.53 34.203-47.327 19.467-73.187m-2.805 1.598c13.886 24.368 5.7 55.133-18.26 68.786-23.958 13.652-54.597 5.012-68.483-19.356" color="#000" font-weight="400" font-family="sans-serif" white-space="normal" overflow="visible" fill="none" stroke="#525252" stroke-width="10"/>
    <path d="M180.792 107.381c-14.736-25.86-47.388-35.09-72.885-20.56-25.498 14.53-34.203 47.327-19.467 73.187m2.805-1.598c-13.886-24.368-5.7-55.133 18.259-68.786 23.959-13.652 54.598-5.012 68.483 19.356" style="line-height:normal;text-indent:0;text-align:start;text-decoration-line:none;text-decoration-style:solid;text-decoration-color:#000;text-transform:none;block-progression:tb;isolation:auto;mix-blend-mode:normal" color="#000" font-weight="400" font-family="sans-serif" white-space="normal" overflow="visible" fill="#919191" stroke="#393939" stroke-width="10"/>
</svg>
