<svg xmlns="http://www.w3.org/2000/svg" width="118.569" height="119.339" viewBox="0 0 118.56876 119.33923">
    <g transform="translate(-145.185 -167.587)">
        <ellipse ry="52.337" rx="51.533" cy="224.39" cx="205.909" fill="#262626"/>
        <path d="M204.875 174.068a51.533 52.337 0 0 0-51.533 52.338 51.533 52.337 0 0 0 25.594 45.162 51.533 52.337 0 0 1 .199-4.02 51.533 52.337 0 0 1 .77-5.171 51.533 52.337 0 0 1 1.275-5.069 51.533 52.337 0 0 1 1.765-4.914 51.533 52.337 0 0 1 2.24-4.71 51.533 52.337 0 0 1 2.694-4.462 51.533 52.337 0 0 1 3.117-4.164 51.533 52.337 0 0 1 3.512-3.828 51.533 52.337 0 0 1 3.869-3.453 51.533 52.337 0 0 1 4.19-3.043 51.533 52.337 0 0 1 4.468-2.603 51.533 52.337 0 0 1 4.701-2.137 51.533 52.337 0 0 1 4.889-1.648 51.533 52.337 0 0 1 5.027-1.147 51.533 52.337 0 0 1 5.114-.63 51.533 52.337 0 0 1 3.644-.132 51.533 52.337 0 0 1 5.145.262 51.533 52.337 0 0 1 5.093.781 51.533 52.337 0 0 1 4.993 1.295 51.533 52.337 0 0 1 4.838 1.793 51.533 52.337 0 0 1 4.638 2.278 51.533 52.337 0 0 1 1.233.767 51.533 52.337 0 0 0 .058-1.207 51.533 52.337 0 0 0-51.533-52.338z" fill="#141414"/>
        <path style="line-height:normal;text-indent:0;text-align:start;text-decoration-line:none;text-decoration-style:solid;text-decoration-color:#000;text-transform:none;block-progression:tb;isolation:auto;mix-blend-mode:normal" d="M158.255 253.503c14.736 25.86 47.389 35.09 72.886 20.56 25.497-14.53 34.203-47.327 19.467-73.187m-2.805 1.599c13.886 24.367 5.7 55.132-18.26 68.785-23.958 13.652-54.597 5.012-68.483-19.355" color="#000" font-weight="400" font-family="sans-serif" white-space="normal" overflow="visible" fill="none" stroke="#525252" stroke-width="10"/>
        <path d="M250.684 201.01c-14.736-25.86-47.388-35.09-72.886-20.56-25.497 14.53-34.202 47.328-19.466 73.187m2.805-1.598c-13.886-24.368-5.7-55.133 18.259-68.785 23.958-13.653 54.598-5.013 68.483 19.355" style="line-height:normal;text-indent:0;text-align:start;text-decoration-line:none;text-decoration-style:solid;text-decoration-color:#000;text-transform:none;block-progression:tb;isolation:auto;mix-blend-mode:normal" color="#000" font-weight="400" font-family="sans-serif" white-space="normal" overflow="visible" fill="#919191" stroke="#393939" stroke-width="10"/>
    </g>
</svg>
