<svg xmlns="http://www.w3.org/2000/svg" width="204.287" height="204.286" viewBox="0 0 204.28659 204.28572">
    <circle cx="102.143" cy="102.143" r="102.143" fill="#28c833"/>
    <circle r="10.357" cy="59.143" cx="68.071" fill="#fff" fill-opacity=".554"/>
    <path d="M8.013 140.834a102.143 102.143 0 0 0 94.129 62.738 102.143 102.143 0 0 0 102.145-102.143 102.143 102.143 0 0 0-31.584-73.691 102.143 102.143 0 0 1 1.07 2.393 102.143 102.143 0 0 1 3.219 9.689 102.143 102.143 0 0 1 2.236 9.96 102.143 102.143 0 0 1 1.23 10.138 102.143 102.143 0 0 1 .256 7.224 102.143 102.143 0 0 1-.51 10.198 102.143 102.143 0 0 1-1.525 10.095 102.143 102.143 0 0 1-2.527 9.893 102.143 102.143 0 0 1-3.5 9.592 102.143 102.143 0 0 1-4.442 9.193 102.143 102.143 0 0 1-5.336 8.703 102.143 102.143 0 0 1-6.18 8.129 102.143 102.143 0 0 1-6.958 7.47 102.143 102.143 0 0 1-7.672 6.739 102.143 102.143 0 0 1-8.305 5.94 102.143 102.143 0 0 1-8.855 5.08 102.143 102.143 0 0 1-9.32 4.17 102.143 102.143 0 0 1-9.69 3.22 102.143 102.143 0 0 1-9.961 2.235 102.143 102.143 0 0 1-10.137 1.23 102.143 102.143 0 0 1-7.224.256 102.143 102.143 0 0 1-10.198-.51 102.143 102.143 0 0 1-10.095-1.525 102.143 102.143 0 0 1-9.893-2.526 102.143 102.143 0 0 1-9.592-3.502 102.143 102.143 0 0 1-9.193-4.441 102.143 102.143 0 0 1-8.703-5.336 102.143 102.143 0 0 1-8.129-6.18 102.143 102.143 0 0 1-4.756-4.431z" fill="#259b2d" fill-opacity=".153"/>
</svg>
