<svg xmlns="http://www.w3.org/2000/svg" viewBox="0 0 246.72039 246.72039" width="246.72" height="246.72"><circle cx="123.36" cy="123.36" r="123.36" fill="#f2f2f2"/><path d="M93.65 132.4c5.24-3.374 4.653-13.41 4.653-15.753h42.16c0 2.342-.65 12.38 4.587 15.752l-25.668 28.748-25.73-28.75z" fill="#ffd7a3"/><path d="M135.778 142.41l9.272-10.012c-5.238-3.372-4.588-13.41-4.588-15.752h-42.16c3.026 8.697 23.032 23.617 37.476 25.764z" fill="#fdc88e"/><path d="M152.173 86.2c0 18.755-10.8 42.158-32.79 42.158s-32.79-23.403-32.79-42.16c0-18.755 14.68-25.763 32.79-25.763s32.79 7.008 32.79 25.764z" fill="#ffe1b2"/><path d="M173.252 189.253c3.88 0 7.026-3.145 7.026-7.026v-22.59c0-10.304-8.03-21.306-17.845-24.446l-14.653-4.688c-7.884 6.028-19.15 14.25-28.397 14.25s-20.514-8.222-28.397-14.25l-14.653 4.69c-9.815 3.14-17.846 14.14-17.846 24.446v22.59c0 3.88 3.146 7.025 7.026 7.025h107.74z" fill="#a2cde2"/><path d="M105.33 46.382h-4.685c-9.054 0-16.395 7.424-16.395 16.48 0 8.406 2.342 23.337 2.342 23.337s2.635-11.858 14.053-16.396c6.978-2.773 4.685-23.422 4.685-23.422z" fill="#545465"/><path d="M102.988 46.466c9.417-14.478 33.668-2.426 49.185-2.426 2.342 3.367 3.952 28.838 0 42.16l-7.027-11.712s-21.47 7.89-44.5-4.6" fill="#545465"/><path d="M87.72 90.883c-3.512-.878-5.812.998-5.812 4.684 0 4.88 4.722 16.835 9.685 9.37 4.964-7.467-3.874-14.054-3.874-14.054zM150.514 90.883c3.832-.878 6.343.998 6.343 4.684 0 4.88-5.154 16.835-10.572 9.37-5.418-7.467 4.23-14.054 4.23-14.054z" fill="#ffe1b2"/><path d="M124.067 151.91c0 1.29-1.054 2.343-2.342 2.343h-4.685c-1.288 0-2.342-1.054-2.342-2.342v-4.684c0-1.288 1.054-2.342 2.342-2.342h4.685c1.288 0 2.342 1.054 2.342 2.342v4.685z" fill="#29394a"/><path fill="#29394a" d="M116.165 152.935l-1.467 36.176h9.37l-1.468-36.175-3.217 1.318"/><path d="M119.383 144.753l-9.773 9.772c-1.017 1.018-2.703.885-3.55-.28L88.935 130.7l5.455-5.456c.88-.88 2.297-.918 3.223-.084l21.77 19.593zM119.383 144.753l9.772 9.772c1.018 1.018 2.704.885 3.55-.28L149.83 130.7l-5.455-5.456c-.88-.88-2.297-.918-3.222-.084l-21.77 19.593z" fill="#b5e0f0"/><path d="M162.498 135.19l-12.77-4.086-30.312 37.377-30.313-37.376-12.77 4.086c-9.815 3.14-17.846 14.142-17.846 24.448v22.59c0 3.597 2.715 6.53 6.2 6.942h109.456c3.487-.413 6.202-3.345 6.202-6.943v-22.59c0-10.305-8.03-21.306-17.847-24.447z" fill="#4a698e"/><path fill="#416185" d="M136.54 189.17h2.342v-44.693l-2.342 2.89M121.904 189.17h2.342v-26.645l-2.342 2.888M129.222 189.17h2.342V153.5l-2.342 2.89M151.176 189.17h2.342v-56.853l-2.342-.75M114.585 189.17h2.343v-23.757l-2.343-2.888M165.813 136.59v52.58h2.342v-51.183c-.76-.513-1.54-.98-2.342-1.398zM158.495 133.91v55.26h2.342v-54.512M143.858 138.342v50.828h2.342v-53.716M77.995 189.17h2.342v-55.26l-2.342.748M107.267 189.17h2.342v-32.78l-2.343-2.89M63.358 145.274v43.6c.428.138.87.242 1.33.296H65.7v-46.838c-.84.93-1.624 1.91-2.342 2.942zM173.13 189.17h1.013c.46-.054.902-.158 1.33-.295v-43.6c-.718-1.032-1.5-2.014-2.342-2.943v46.838zM70.677 137.987v51.183h2.342v-52.58c-.803.416-1.583.884-2.343 1.397zM99.95 189.17h2.34v-41.804l-2.34-2.888M92.63 189.17h2.343v-50.828l-2.342-2.888M85.313 132.317v56.853h2.342v-57.603"/><g><path d="M79.276 145.14l8.23 1.03v6.057c0 .757.367 1.467.983 1.907l30.892 22.032.033-7.685-30.48-37.78-11.71 4.284v7.833c0 1.18.878 2.177 2.05 2.324z" fill="#395a7f"/></g><g><path d="M159.49 145.14l-8.23 1.03v6.057c0 .757-.367 1.467-.983 1.907l-30.893 22.032-.033-7.685 30.482-37.78 11.71 4.284v7.833c0 1.18-.88 2.177-2.052 2.324z" fill="#395a7f"/></g><g><path fill="#395a7f" d="M119.35 171.23l-3.188-.206 2.147 18.146h2.082l2.147-18.146"/></g></svg>