<svg xmlns="http://www.w3.org/2000/svg" viewBox="0 0 199.99999 199.99999" height="213.333" width="213.333"><g transform="translate(-240 -353.79)"><circle r="100" cy="453.791" cx="340" fill="#ca1616"/><path d="M338.419 388.158A62.419 62.419 0 0 0 276 450.577a62.419 62.419 0 0 0 18.571 44.354 62.419 62.419 0 0 1-1.688-5.08 62.419 62.419 0 0 1-1.366-6.089 62.419 62.419 0 0 1-.751-6.193 62.419 62.419 0 0 1-.157-4.416 62.419 62.419 0 0 1 .31-6.231 62.419 62.419 0 0 1 .934-6.17 62.419 62.419 0 0 1 1.543-6.045 62.419 62.419 0 0 1 2.14-5.86 62.419 62.419 0 0 1 2.714-5.619 62.419 62.419 0 0 1 3.26-5.32 62.419 62.419 0 0 1 3.778-4.966 62.419 62.419 0 0 1 4.252-4.564 62.419 62.419 0 0 1 4.688-4.118 62.419 62.419 0 0 1 5.075-3.63 62.419 62.419 0 0 1 5.41-3.105 62.419 62.419 0 0 1 5.697-2.549 62.419 62.419 0 0 1 5.92-1.966 62.419 62.419 0 0 1 6.089-1.367 62.419 62.419 0 0 1 6.193-.752 62.419 62.419 0 0 1 4.416-.156 62.419 62.419 0 0 1 6.231.312 62.419 62.419 0 0 1 6.168.931 62.419 62.419 0 0 1 6.046 1.544 62.419 62.419 0 0 1 5.862 2.14 62.419 62.419 0 0 1 5.617 2.713 62.419 62.419 0 0 1 5.32 3.261 62.419 62.419 0 0 1 4.966 3.777 62.419 62.419 0 0 1 3.637 3.388 62.419 62.419 0 0 0-58.456-40.643z" fill="#9b1111"/></g></svg>