<?xml version="1.0" encoding="UTF-8" standalone="no"?>
<svg
   xmlns:dc="http://purl.org/dc/elements/1.1/"
   xmlns:cc="http://creativecommons.org/ns#"
   xmlns:rdf="http://www.w3.org/1999/02/22-rdf-syntax-ns#"
   xmlns:svg="http://www.w3.org/2000/svg"
   xmlns="http://www.w3.org/2000/svg"
   xmlns:sodipodi="http://sodipodi.sourceforge.net/DTD/sodipodi-0.dtd"
   xmlns:inkscape="http://www.inkscape.org/namespaces/inkscape"
   version="1.1"
   id="svg2"
   viewBox="0 0 204.28659 204.28572"
   height="204.28572"
   width="204.28661"
   inkscape:version="0.91 r13725"
   sodipodi:docname="m_peg.svg">
  <sodipodi:namedview
     pagecolor="#ffffff"
     bordercolor="#666666"
     borderopacity="1"
     objecttolerance="10"
     gridtolerance="10"
     guidetolerance="10"
     inkscape:pageopacity="0"
     inkscape:pageshadow="2"
     inkscape:window-width="2065"
     inkscape:window-height="1040"
     id="namedview9"
     showgrid="false"
     fit-margin-top="0"
     fit-margin-left="0"
     fit-margin-right="0"
     fit-margin-bottom="0"
     inkscape:zoom="0.26305732"
     inkscape:cx="181.39814"
     inkscape:cy="-461.32182"
     inkscape:window-x="0"
     inkscape:window-y="0"
     inkscape:window-maximized="0"
     inkscape:current-layer="svg2" />
  <defs
     id="defs4" />
  <metadata
     id="metadata7">
    <rdf:RDF>
      <cc:Work
         rdf:about="">
        <dc:format>image/svg+xml</dc:format>
        <dc:type
           rdf:resource="http://purl.org/dc/dcmitype/StillImage" />
        <dc:title></dc:title>
      </cc:Work>
    </rdf:RDF>
  </metadata>
  <circle
     r="102.14286"
     cy="102.14286"
     cx="102.1428"
     id="circle4465"
     style="fill:#28c833;fill-opacity:1;stroke:none;stroke-width:0;stroke-miterlimit:4;stroke-dasharray:none;stroke-opacity:1" />
  <circle
     style="fill:#ffffff;fill-opacity:0.55414016;stroke:none;stroke-width:0;stroke-miterlimit:4;stroke-dasharray:none;stroke-opacity:1"
     id="circle4467"
     cx="68.071388"
     cy="59.14283"
     r="10.357142" />
  <path
     inkscape:connector-curvature="0"
     style="fill:#259b2d;fill-opacity:0.15286626;stroke:none;stroke-width:0;stroke-miterlimit:4;stroke-dasharray:none;stroke-opacity:1"
     d="M 8.0130976,140.8337 A 102.14286,102.14286 0 0 0 102.142,203.57198 102.14286,102.14286 0 0 0 204.28654,101.4294 102.14286,102.14286 0 0 0 172.70255,27.737973 a 102.14286,102.14286 0 0 1 1.07031,2.39258 102.14286,102.14286 0 0 1 3.21875,9.68945 102.14286,102.14286 0 0 1 2.23633,9.96094 102.14286,102.14286 0 0 1 1.23047,10.13674 102.14286,102.14286 0 0 1 0.25586,7.22461 102.14286,102.14286 0 0 1 -0.50977,10.19727 102.14286,102.14286 0 0 1 -1.52539,10.0957 102.14286,102.14286 0 0 1 -2.52734,9.89258 102.14286,102.14286 0 0 1 -3.5,9.591787 102.14286,102.14286 0 0 1 -4.44141,9.19336 102.14286,102.14286 0 0 1 -5.33593,8.70313 102.14286,102.14286 0 0 1 -6.17969,8.1289 102.14286,102.14286 0 0 1 -6.95899,7.47071 102.14286,102.14286 0 0 1 -7.67187,6.73828 102.14286,102.14286 0 0 1 -8.30469,5.93945 102.14286,102.14286 0 0 1 -8.85547,5.08008 102.14286,102.14286 0 0 1 -9.32031,4.16992 102.14286,102.14286 0 0 1 -9.68945,3.2207 102.14286,102.14286 0 0 1 -9.960942,2.23438 102.14286,102.14286 0 0 1 -10.13672,1.23047 102.14286,102.14286 0 0 1 -7.22461,0.25586 102.14286,102.14286 0 0 1 -10.19726,-0.50977 102.14286,102.14286 0 0 1 -10.09572,-1.52539 102.14286,102.14286 0 0 1 -9.89256,-2.52539 102.14286,102.14286 0 0 1 -9.5918,-3.50195 102.14286,102.14286 0 0 1 -9.19336,-4.44141 102.14286,102.14286 0 0 1 -8.70313,-5.33594 102.14286,102.14286 0 0 1 -8.1289,-6.17968 102.14286,102.14286 0 0 1 -4.7558604,-4.43164 z"
     id="path4469" />
</svg>
