<?xml version="1.0" encoding="UTF-8" standalone="no"?>
<svg
   xmlns:dc="http://purl.org/dc/elements/1.1/"
   xmlns:cc="http://creativecommons.org/ns#"
   xmlns:rdf="http://www.w3.org/1999/02/22-rdf-syntax-ns#"
   xmlns:svg="http://www.w3.org/2000/svg"
   xmlns="http://www.w3.org/2000/svg"
   xmlns:sodipodi="http://sodipodi.sourceforge.net/DTD/sodipodi-0.dtd"
   xmlns:inkscape="http://www.inkscape.org/namespaces/inkscape"
   viewBox="0 0 744.09566 1052.3639"
   width="210mm"
   height="297mm"
   id="svg4296"
   version="1.1"
   inkscape:version="0.91 r13725"
   sodipodi:docname="all_8_pegs_side.svg">
  <metadata
     id="metadata4314">
    <rdf:RDF>
      <cc:Work
         rdf:about="">
        <dc:format>image/svg+xml</dc:format>
        <dc:type
           rdf:resource="http://purl.org/dc/dcmitype/StillImage" />
        <dc:title />
      </cc:Work>
    </rdf:RDF>
  </metadata>
  <defs
     id="defs4312" />
  <sodipodi:namedview
     pagecolor="#ffffff"
     bordercolor="#666666"
     borderopacity="1"
     objecttolerance="14"
     gridtolerance="10"
     guidetolerance="10"
     inkscape:pageopacity="0"
     inkscape:pageshadow="2"
     inkscape:window-width="1204"
     inkscape:window-height="1167"
     id="namedview4310"
     showgrid="false"
     inkscape:zoom="0.31230122"
     inkscape:cx="609.78166"
     inkscape:cy="-717.96664"
     inkscape:window-x="0"
     inkscape:window-y="0"
     inkscape:window-maximized="0"
     inkscape:current-layer="layer1"
     units="mm"
     showguides="false"
     inkscape:guide-bbox="true">
    <sodipodi:guide
       position="137.49629,78.72772"
       orientation="0,1"
       id="guide4910" />
    <sodipodi:guide
       position="130.84325,240.98814"
       orientation="0,1"
       id="guide5013" />
    <sodipodi:guide
       position="117.53715,402.87894"
       orientation="0,1"
       id="guide5015" />
  </sodipodi:namedview>
  <g
     inkscape:groupmode="layer"
     id="layer2"
     inkscape:label="Layer 2"
     style="display:none"
     sodipodi:insensitive="true">
    <rect
       style="fill:#000000;fill-opacity:1;stroke:none;stroke-width:0;stroke-miterlimit:4;stroke-dasharray:none;stroke-opacity:1"
       id="rect5220"
       width="519.67694"
       height="585.46808"
       x="4.4353352"
       y="462.46039" />
  </g>
  <g
     inkscape:groupmode="layer"
     id="layer1"
     inkscape:label="Layer 1"
     style="display:inline">
    <path
       d="m 71.115894,900.59067 33.275996,0 0,73.54656 -33.275996,0 z"
       id="path4302"
       inkscape:connector-curvature="0"
       style="fill:#d89dd0;fill-opacity:1" />
    <path
       d="m 86.669894,908.10767 17.622526,0 0,65.86296 -17.622526,0 z"
       id="path4304"
       inkscape:connector-curvature="0"
       style="fill:#cd82c3;fill-opacity:1" />
    <path
       d="m 71.12287,907.86967 c 2.69247,0 33.31107,0.238 33.31107,0.238 l -0.22437,33.05796 c 0,0 -7.226361,-25.48334 -33.027111,-27.62334 z"
       id="path4306"
       inkscape:connector-curvature="0"
       style="fill:#c33db8;fill-opacity:0.45899999;fill-rule:evenodd"
       sodipodi:nodetypes="ccccc" />
    <path
       style="display:inline;fill:#e7eb6a;fill-opacity:1"
       inkscape:connector-curvature="0"
       id="path4966-04"
       d="m 234.91311,576.15827 33.27601,0 0,73.5466 -33.27601,0 z" />
    <path
       style="fill:#848484;fill-opacity:1"
       inkscape:connector-curvature="0"
       id="path4966"
       d="m 228.57133,900.22106 33.27601,0 0,73.54657 -33.27601,0 z" />
    <path
       style="display:inline;fill:#f3f2de;fill-opacity:1"
       inkscape:connector-curvature="0"
       id="path4966-9"
       d="m 387.93319,738.04908 33.27601,0 0,73.54664 -33.27601,0 z" />
    <path
       style="display:inline;fill:#8ab4eb;fill-opacity:1"
       inkscape:connector-curvature="0"
       id="path4966-0"
       d="m 72.283074,576.15827 33.276006,0 0,73.5466 -33.276006,0 z" />
    <path
       d="m 37.839894,907.98367 a 49.914,48.777999 0 0 1 25.22,-42.39 49.914,48.777999 0 0 1 50.175996,0.447 49.914,48.777999 0 0 1 24.424,42.833 l -49.905996,-0.89 z"
       id="path4300"
       inkscape:connector-curvature="0"
       style="fill:#d89dd0;fill-opacity:1" />
    <ellipse
       ry="4.5190001"
       rx="4.7290001"
       cy="877.18964"
       cx="70.975899"
       id="ellipse4308"
       style="fill:#ffffff" />
    <path
       style="fill:#848484;fill-opacity:1"
       inkscape:connector-curvature="0"
       id="path4964"
       d="m 195.29533,907.61406 a 49.914,48.777999 0 0 1 25.22,-42.39 49.914,48.777999 0 0 1 50.17601,0.447 49.914,48.777999 0 0 1 24.424,42.833 l -49.906,-0.89 z" />
    <path
       style="fill:#787878;fill-opacity:1"
       inkscape:connector-curvature="0"
       id="path4968"
       d="m 244.69138,907.73806 11.53754,0 0,65.86297 -11.53754,0 z" />
    <path
       style="fill:#5f5c84;fill-opacity:0.45899999;fill-rule:evenodd"
       inkscape:connector-curvature="0"
       id="path4970"
       d="m 228.86133,907.50006 c 2.58,0 32.46201,0.238 32.46201,0.238 l -0.215,33.05797 c 0,0 -7.094,-25.44797 -31.81701,-27.58797 z" />
    <ellipse
       style="fill:#ffffff"
       id="ellipse4972"
       cx="228.43134"
       cy="876.82001"
       rx="4.7290001"
       ry="4.5190001" />
    <path
       style="display:inline;fill:#6cbb49;fill-opacity:1"
       inkscape:connector-curvature="0"
       id="path4964-0"
       d="m 41.594374,745.44207 a 49.914,48.777998 0 0 1 25.22,-42.39 49.914,48.777998 0 0 1 50.175996,0.447 49.914,48.777998 0 0 1 24.424,42.833 l -49.905996,-0.89 z" />
    <path
       style="display:inline;fill:#6cbb49;fill-opacity:1"
       inkscape:connector-curvature="0"
       id="path4966-6"
       d="m 74.870374,738.04907 33.275996,0 0,73.5466 -33.275996,0 z" />
    <path
       style="display:inline;fill:#5fa83f;fill-opacity:1"
       inkscape:connector-curvature="0"
       id="path4968-7"
       d="m 90.424374,745.56607 13.801716,0 0,65.86296 -13.801716,0 z" />
    <path
       style="display:inline;fill:#315c1c;fill-opacity:0.45899999;fill-rule:evenodd"
       inkscape:connector-curvature="0"
       id="path4970-9"
       d="m 75.160374,745.32807 c 2.57999,0 32.461996,0.238 32.461996,0.238 l -0.215,33.058 c 0,0 -7.094,-25.448 -31.816996,-27.588 z" />
    <ellipse
       style="display:inline;fill:#ffffff"
       id="ellipse4972-6"
       cx="74.73037"
       cy="714.64801"
       rx="4.7290001"
       ry="4.5190001" />
    <path
       style="display:inline;fill:#8cb3e9;fill-opacity:1"
       inkscape:connector-curvature="0"
       id="path4964-6"
       d="m 39.007074,583.55127 a 49.914,48.777998 0 0 1 25.22,-42.39 49.914,48.777998 0 0 1 50.176006,0.447 49.914,48.777998 0 0 1 24.424,42.833 l -49.905996,-0.89 z" />
    <path
       style="display:inline;fill:#709bd8;fill-opacity:0.70063692"
       inkscape:connector-curvature="0"
       id="path4968-6"
       d="m 87.837084,583.67527 12.103578,0 0,65.86295 -12.103578,0 z" />
    <path
       style="display:inline;fill:#3d74c3;fill-opacity:0.45899999;fill-rule:evenodd"
       inkscape:connector-curvature="0"
       id="path4970-5"
       d="m 72.573074,583.43727 c 2.58,0 32.462006,0.238 32.462006,0.238 l -0.215,33.058 c 0,0 -7.093996,-25.448 -31.817006,-27.588 z" />
    <ellipse
       style="display:inline;fill:#ffffff"
       id="ellipse4972-8"
       cx="72.143089"
       cy="552.7572"
       rx="4.7290001"
       ry="4.5190001" />
    <path
       style="display:inline;fill:#e7eb6a;fill-opacity:1"
       inkscape:connector-curvature="0"
       id="path4964-9"
       d="m 201.63711,583.55127 a 49.914,48.777998 0 0 1 25.22,-42.39 49.914,48.777998 0 0 1 50.17601,0.447 49.914,48.777998 0 0 1 24.424,42.833 l -49.906,-0.89 z" />
    <path
       style="display:inline;fill:#dada4f;fill-opacity:1"
       inkscape:connector-curvature="0"
       id="path4968-75"
       d="m 250.46712,583.67527 13.23567,0 0,65.86295 -13.23567,0 z" />
    <path
       style="display:inline;fill:#abb617;fill-opacity:0.6878981;fill-rule:evenodd"
       inkscape:connector-curvature="0"
       id="path4970-3"
       d="m 235.20311,583.43727 c 2.58,0 32.46201,0.238 32.46201,0.238 l -0.215,33.058 c 0,0 -7.094,-25.448 -31.81701,-27.588 z" />
    <ellipse
       style="display:inline;fill:#ffffff"
       id="ellipse4972-4"
       cx="234.77313"
       cy="552.75726"
       rx="4.7290001"
       ry="4.5190001" />
    <path
       style="display:inline;fill:#f0a210;fill-opacity:1"
       inkscape:connector-curvature="0"
       id="path4964-7"
       d="m 204.59402,746.1813 a 49.914,48.777998 0 0 1 25.22,-42.39 49.914,48.777998 0 0 1 50.17601,0.447 49.914,48.777998 0 0 1 24.424,42.833 l -49.906,-0.89 z" />
    <path
       style="display:inline;fill:#f0a210;fill-opacity:1"
       inkscape:connector-curvature="0"
       id="path4966-5"
       d="m 237.87002,738.7883 33.27601,0 0,73.5466 -33.27601,0 z" />
    <path
       style="display:inline;fill:#e2970b;fill-opacity:1"
       inkscape:connector-curvature="0"
       id="path4968-73"
       d="m 253.42403,746.3053 11.53754,0 0,65.86295 -11.53754,0 z" />
    <path
       style="display:inline;fill:#b94b47;fill-opacity:0.45899999;fill-rule:evenodd"
       inkscape:connector-curvature="0"
       id="path4970-8"
       d="m 238.16002,746.0673 c 2.58,0 32.46201,0.238 32.46201,0.238 l -0.215,33.058 c 0,0 -7.094,-25.448 -31.81701,-27.588 z" />
    <ellipse
       style="display:inline;fill:#ffffff"
       id="ellipse4972-7"
       cx="237.73004"
       cy="715.38721"
       rx="4.7290001"
       ry="4.5190001" />
    <path
       style="display:inline;fill:#c85825;fill-opacity:1"
       inkscape:connector-curvature="0"
       id="path4964-4"
       d="m 351.70028,585.02973 a 49.914,48.777998 0 0 1 25.22,-42.39 49.914,48.777998 0 0 1 50.17601,0.447 49.914,48.777998 0 0 1 24.424,42.833 l -49.906,-0.89 z" />
    <path
       style="display:inline;fill:#c85825;fill-opacity:1"
       inkscape:connector-curvature="0"
       id="path4966-2"
       d="m 384.97628,577.63673 33.27601,0 0,73.5466 -33.27601,0 z" />
    <path
       style="display:inline;fill:#bc4b17;fill-opacity:0.84713376"
       inkscape:connector-curvature="0"
       id="path4968-4"
       d="m 400.53029,585.15373 12.10358,0 0,65.86295 -12.10358,0 z" />
    <path
       style="display:inline;fill:#7b3504;fill-opacity:0.45899999;fill-rule:evenodd"
       inkscape:connector-curvature="0"
       id="path4970-6"
       d="m 385.26628,584.91573 c 2.58,0 32.46201,0.238 32.46201,0.238 l -0.215,33.058 c 0,0 -7.094,-25.448 -31.81701,-27.588 z" />
    <ellipse
       style="display:inline;fill:#ffffff"
       id="ellipse4972-77"
       cx="384.8363"
       cy="554.23572"
       rx="4.7290001"
       ry="4.5190001" />
    <path
       style="display:inline;fill:#f3f2de;fill-opacity:1"
       inkscape:connector-curvature="0"
       id="path4964-09"
       d="m 354.65719,745.44208 a 49.914,48.777998 0 0 1 25.22,-42.39 49.914,48.777998 0 0 1 50.17601,0.447 49.914,48.777998 0 0 1 24.424,42.833 l -49.906,-0.89 z" />
    <path
       style="display:inline;fill:#dcdaca;fill-opacity:0.79617834"
       inkscape:connector-curvature="0"
       id="path4968-3"
       d="m 403.4872,745.56608 13.23567,0 0,65.86295 -13.23567,0 z" />
    <path
       style="display:inline;fill:#aeb7c1;fill-opacity:0.45899999;fill-rule:evenodd"
       inkscape:connector-curvature="0"
       id="path4970-4"
       d="m 388.22319,745.32808 c 2.58,0 32.46201,0.238 32.46201,0.238 l -0.215,33.058 c 0,0 -7.094,-25.448 -31.81701,-27.588 z" />
    <ellipse
       style="display:inline;fill:#ffffff"
       id="ellipse4972-84"
       cx="387.79318"
       cy="714.64807"
       rx="4.7290001"
       ry="4.5190001" />
  </g>
</svg>
