<?xml version="1.0" encoding="UTF-8" standalone="no"?>
<!-- Created with Inkscape (http://www.inkscape.org/) -->

<svg
   xmlns:dc="http://purl.org/dc/elements/1.1/"
   xmlns:cc="http://creativecommons.org/ns#"
   xmlns:rdf="http://www.w3.org/1999/02/22-rdf-syntax-ns#"
   xmlns:svg="http://www.w3.org/2000/svg"
   xmlns="http://www.w3.org/2000/svg"
   xmlns:sodipodi="http://sodipodi.sourceforge.net/DTD/sodipodi-0.dtd"
   xmlns:inkscape="http://www.inkscape.org/namespaces/inkscape"
   width="210mm"
   height="297mm"
   viewBox="0 0 744.09448819 1052.3622047"
   id="svg2"
   version="1.1"
   inkscape:version="0.91 r13725"
   sodipodi:docname="feedback-pegs.svg">
  <defs
     id="defs4" />
  <sodipodi:namedview
     id="base"
     pagecolor="#ffffff"
     bordercolor="#666666"
     borderopacity="1.0"
     inkscape:pageopacity="0.0"
     inkscape:pageshadow="2"
     inkscape:zoom="0.98994949"
     inkscape:cx="511.56022"
     inkscape:cy="416.22317"
     inkscape:document-units="px"
     inkscape:current-layer="layer4"
     showgrid="false"
     inkscape:window-width="2560"
     inkscape:window-height="1396"
     inkscape:window-x="0"
     inkscape:window-y="0"
     inkscape:window-maximized="1" />
  <metadata
     id="metadata7">
    <rdf:RDF>
      <cc:Work
         rdf:about="">
        <dc:format>image/svg+xml</dc:format>
        <dc:type
           rdf:resource="http://purl.org/dc/dcmitype/StillImage" />
        <dc:title></dc:title>
      </cc:Work>
    </rdf:RDF>
  </metadata>
  <g
     inkscape:groupmode="layer"
     id="layer3"
     inkscape:label="Layer 3"
     sodipodi:insensitive="true"
     style="display:inline">
    <rect
       style="fill:#000000;fill-opacity:1;stroke:none;stroke-width:0;stroke-miterlimit:4;stroke-dasharray:none;stroke-opacity:1"
       id="rect4145"
       width="680"
       height="681.42859"
       x="52.857143"
       y="186.64792" />
  </g>
  <g
     inkscape:groupmode="layer"
     id="layer4"
     inkscape:label="Layer 4">
    <circle
       style="fill:#ca1616;fill-opacity:1;stroke:none;stroke-width:0;stroke-miterlimit:4;stroke-dasharray:none;stroke-opacity:1"
       id="path4149"
       cx="340"
       cy="453.79077"
       r="100" />
    <path
       style="fill:#9b1111;fill-opacity:1;stroke:none;stroke-width:0;stroke-miterlimit:4;stroke-dasharray:none;stroke-opacity:1"
       d="m 338.41862,388.15823 a 62.418607,62.418607 0 0 0 -62.41835,62.41835 62.418607,62.418607 0 0 0 18.57099,44.35394 62.418607,62.418607 0 0 1 -1.6886,-5.08033 62.418607,62.418607 0 0 1 -1.36541,-6.08804 62.418607,62.418607 0 0 1 -0.7517,-6.19336 62.418607,62.418607 0 0 1 -0.15614,-4.41579 62.418607,62.418607 0 0 1 0.31048,-6.23148 62.418607,62.418607 0 0 1 0.93327,-6.16975 62.418607,62.418607 0 0 1 1.54334,-6.04447 62.418607,62.418607 0 0 1 2.13889,-5.86108 62.418607,62.418607 0 0 1 2.71449,-5.61778 62.418607,62.418607 0 0 1 3.26099,-5.32001 62.418607,62.418607 0 0 1 3.77666,-4.96593 62.418607,62.418607 0 0 1 4.25237,-4.56468 62.418607,62.418607 0 0 1 4.68814,-4.11801 62.418607,62.418607 0 0 1 5.07488,-3.62959 62.418607,62.418607 0 0 1 5.41079,-3.10485 62.418607,62.418607 0 0 1 5.69586,-2.54924 62.418607,62.418607 0 0 1 5.921,-1.9664 62.418607,62.418607 0 0 1 6.08804,-1.36722 62.418607,62.418607 0 0 1 6.19336,-0.75171 62.418607,62.418607 0 0 1 4.41578,-0.15615 62.418607,62.418607 0 0 1 6.23149,0.3123 62.418607,62.418607 0 0 1 6.16793,0.93145 62.418607,62.418607 0 0 1 6.04629,1.54335 62.418607,62.418607 0 0 1 5.86108,2.14072 62.418607,62.418607 0 0 1 5.61778,2.71265 62.418607,62.418607 0 0 1 5.32,3.26101 62.418607,62.418607 0 0 1 4.96595,3.77665 62.418607,62.418607 0 0 1 3.63685,3.3881 62.418607,62.418607 0 0 0 -58.4565,-40.64265 z"
       id="circle4153"
       inkscape:connector-curvature="0" />
    <circle
       r="100"
       cy="682.08527"
       cx="348.08121"
       id="circle4173"
       style="fill:#fcfded;fill-opacity:1;stroke:none;stroke-width:0;stroke-miterlimit:4;stroke-dasharray:none;stroke-opacity:1" />
    <path
       inkscape:connector-curvature="0"
       id="path4175"
       d="m 346.49984,616.45271 a 62.418607,62.418607 0 0 0 -62.41835,62.41835 62.418607,62.418607 0 0 0 18.57099,44.35394 62.418607,62.418607 0 0 1 -1.6886,-5.08033 62.418607,62.418607 0 0 1 -1.36541,-6.08804 62.418607,62.418607 0 0 1 -0.7517,-6.19336 62.418607,62.418607 0 0 1 -0.15614,-4.41579 62.418607,62.418607 0 0 1 0.31048,-6.23148 62.418607,62.418607 0 0 1 0.93327,-6.16975 62.418607,62.418607 0 0 1 1.54334,-6.04447 62.418607,62.418607 0 0 1 2.13889,-5.86108 62.418607,62.418607 0 0 1 2.71449,-5.61778 62.418607,62.418607 0 0 1 3.26099,-5.32001 62.418607,62.418607 0 0 1 3.77666,-4.96593 62.418607,62.418607 0 0 1 4.25237,-4.56468 62.418607,62.418607 0 0 1 4.68814,-4.11801 62.418607,62.418607 0 0 1 5.07488,-3.62959 62.418607,62.418607 0 0 1 5.41079,-3.10485 62.418607,62.418607 0 0 1 5.69586,-2.54924 62.418607,62.418607 0 0 1 5.921,-1.9664 62.418607,62.418607 0 0 1 6.08804,-1.36722 62.418607,62.418607 0 0 1 6.19336,-0.75171 62.418607,62.418607 0 0 1 4.41578,-0.15615 62.418607,62.418607 0 0 1 6.23149,0.3123 62.418607,62.418607 0 0 1 6.16793,0.93145 62.418607,62.418607 0 0 1 6.04629,1.54335 62.418607,62.418607 0 0 1 5.86108,2.14072 62.418607,62.418607 0 0 1 5.61778,2.71265 62.418607,62.418607 0 0 1 5.32,3.26101 62.418607,62.418607 0 0 1 4.96595,3.77665 62.418607,62.418607 0 0 1 3.63685,3.3881 62.418607,62.418607 0 0 0 -58.4565,-40.64265 z"
       style="fill:#bdbaba;fill-opacity:1;stroke:none;stroke-width:0;stroke-miterlimit:4;stroke-dasharray:none;stroke-opacity:1" />
  </g>
</svg>
