<?xml version="1.0" encoding="UTF-8" standalone="no"?>
<!-- Created with Inkscape (http://www.inkscape.org/) -->

<svg
   xmlns:dc="http://purl.org/dc/elements/1.1/"
   xmlns:cc="http://creativecommons.org/ns#"
   xmlns:rdf="http://www.w3.org/1999/02/22-rdf-syntax-ns#"
   xmlns:svg="http://www.w3.org/2000/svg"
   xmlns="http://www.w3.org/2000/svg"
   xmlns:sodipodi="http://sodipodi.sourceforge.net/DTD/sodipodi-0.dtd"
   xmlns:inkscape="http://www.inkscape.org/namespaces/inkscape"
   width="60.073021mm"
   height="61.040638mm"
   viewBox="0 0 212.85716 216.28572"
   id="svg2"
   version="1.1"
   inkscape:version="0.91 r13725"
   sodipodi:docname="greenpeg.svg">
  <defs
     id="defs4" />
  <sodipodi:namedview
     id="base"
     pagecolor="#ffffff"
     bordercolor="#666666"
     borderopacity="1.0"
     inkscape:pageopacity="0.0"
     inkscape:pageshadow="2"
     inkscape:zoom="1.4"
     inkscape:cx="591.10374"
     inkscape:cy="-160.28369"
     inkscape:document-units="px"
     inkscape:current-layer="layer1"
     showgrid="false"
     inkscape:window-width="2560"
     inkscape:window-height="1396"
     inkscape:window-x="0"
     inkscape:window-y="0"
     inkscape:window-maximized="1"
     fit-margin-top="0"
     fit-margin-left="0"
     fit-margin-right="0"
     fit-margin-bottom="0" />
  <metadata
     id="metadata7">
    <rdf:RDF>
      <cc:Work
         rdf:about="">
        <dc:format>image/svg+xml</dc:format>
        <dc:type
           rdf:resource="http://purl.org/dc/dcmitype/StillImage" />
        <dc:title></dc:title>
      </cc:Work>
    </rdf:RDF>
  </metadata>
  <g
     inkscape:label="Layer 1"
     inkscape:groupmode="layer"
     id="layer1"
     transform="translate(-222.85711,-246.64791)">
    <circle
       style="fill:#808080;fill-opacity:0.22292995;stroke:none;stroke-width:0;stroke-miterlimit:4;stroke-dasharray:none;stroke-opacity:1"
       id="path4138"
       cx="333.57141"
       cy="360.79077"
       r="102.14286" />
    <circle
       r="102.14286"
       cy="348.79077"
       cx="324.99997"
       id="circle4140"
       style="fill:#28c833;fill-opacity:1;stroke:none;stroke-width:0;stroke-miterlimit:4;stroke-dasharray:none;stroke-opacity:1" />
    <circle
       style="fill:#ffffff;fill-opacity:0.55414016;stroke:none;stroke-width:0;stroke-miterlimit:4;stroke-dasharray:none;stroke-opacity:1"
       id="path4142"
       cx="293.07141"
       cy="306.86218"
       r="10.357142" />
    <path
       style="fill:#20a029;fill-opacity:0.15286626;stroke:none;stroke-width:0;stroke-miterlimit:4;stroke-dasharray:none;stroke-opacity:1"
       d="m 230.15599,388.19587 a 102.14286,102.14286 0 0 0 94.1289,62.73828 102.14286,102.14286 0 0 0 102.14454,-102.14258 102.14286,102.14286 0 0 0 -31.58399,-73.69141 102.14286,102.14286 0 0 1 1.07031,2.39258 102.14286,102.14286 0 0 1 3.21875,9.68945 102.14286,102.14286 0 0 1 2.23633,9.96094 102.14286,102.14286 0 0 1 1.23047,10.13672 102.14286,102.14286 0 0 1 0.25586,7.22461 102.14286,102.14286 0 0 1 -0.50977,10.19727 102.14286,102.14286 0 0 1 -1.52539,10.0957 102.14286,102.14286 0 0 1 -2.52734,9.89258 102.14286,102.14286 0 0 1 -3.5,9.59179 102.14286,102.14286 0 0 1 -4.44141,9.19336 102.14286,102.14286 0 0 1 -5.33593,8.70313 102.14286,102.14286 0 0 1 -6.17969,8.1289 102.14286,102.14286 0 0 1 -6.95899,7.47071 102.14286,102.14286 0 0 1 -7.67187,6.73828 102.14286,102.14286 0 0 1 -8.30469,5.93945 102.14286,102.14286 0 0 1 -8.85547,5.08008 102.14286,102.14286 0 0 1 -9.32031,4.16992 102.14286,102.14286 0 0 1 -9.68945,3.2207 102.14286,102.14286 0 0 1 -9.96094,2.23438 102.14286,102.14286 0 0 1 -10.13672,1.23047 102.14286,102.14286 0 0 1 -7.22461,0.25586 102.14286,102.14286 0 0 1 -10.19726,-0.50977 102.14286,102.14286 0 0 1 -10.09571,-1.52539 102.14286,102.14286 0 0 1 -9.89257,-2.52539 102.14286,102.14286 0 0 1 -9.5918,-3.50195 102.14286,102.14286 0 0 1 -9.19336,-4.44141 102.14286,102.14286 0 0 1 -8.70313,-5.33594 102.14286,102.14286 0 0 1 -8.1289,-6.17968 102.14286,102.14286 0 0 1 -4.75586,-4.43164 z"
       id="path4149"
       inkscape:connector-curvature="0" />
  </g>
</svg>
