<?xml version="1.0" encoding="UTF-8" standalone="no"?>
<svg
   xmlns:dc="http://purl.org/dc/elements/1.1/"
   xmlns:cc="http://creativecommons.org/ns#"
   xmlns:rdf="http://www.w3.org/1999/02/22-rdf-syntax-ns#"
   xmlns:svg="http://www.w3.org/2000/svg"
   xmlns="http://www.w3.org/2000/svg"
   version="1.1"
   id="svg2"
   viewBox="0 0 224.2857 224.2857"
   height="63.298409mm"
   width="63.298409mm">
  <defs
     id="defs4" />
  <metadata
     id="metadata7">
    <rdf:RDF>
      <cc:Work
         rdf:about="">
        <dc:format>image/svg+xml</dc:format>
        <dc:type
           rdf:resource="http://purl.org/dc/dcmitype/StillImage" />
        <dc:title></dc:title>
      </cc:Work>
    </rdf:RDF>
  </metadata>
  <g
     transform="translate(-177.85715,-183.07651)"
     style="display:none"
     id="layer2">
    <rect
       y="121.64792"
       x="76.428574"
       height="434.28571"
       width="640"
       id="rect4161"
       style="fill:#284464;fill-opacity:1;stroke:none;stroke-width:0;stroke-miterlimit:4;stroke-dasharray:none;stroke-opacity:1" />
  </g>
  <g
     transform="translate(-177.85715,-183.07651)"
     style="display:inline"
     id="layer1">
    <circle
       r="112.14285"
       cy="295.21936"
       cx="290"
       id="path4136"
       style="fill:#353550;fill-opacity:1;stroke:none;stroke-width:0;stroke-miterlimit:4;stroke-dasharray:none;stroke-opacity:1" />
    <path
       id="circle4170"
       d="m 290.71428,184.50475 a 112.14285,112.14285 0 0 0 -112.14258,112.14258 112.14285,112.14285 0 0 0 26.05469,71.70703 112.14285,112.14285 0 0 1 -1.71094,-2.98242 112.14285,112.14285 0 0 1 -4.58008,-10.23047 112.14285,112.14285 0 0 1 -3.53515,-10.63867 112.14285,112.14285 0 0 1 -2.45508,-10.9375 112.14285,112.14285 0 0 1 -1.34961,-11.12695 112.14285,112.14285 0 0 1 -0.28125,-7.9336 112.14285,112.14285 0 0 1 0.56055,-11.19531 112.14285,112.14285 0 0 1 1.67578,-11.08398 112.14285,112.14285 0 0 1 2.77148,-10.86133 112.14285,112.14285 0 0 1 3.84375,-10.5293 112.14285,112.14285 0 0 1 4.87696,-10.09375 112.14285,112.14285 0 0 1 5.85937,-9.55664 112.14285,112.14285 0 0 1 6.7832,-8.92383 112.14285,112.14285 0 0 1 7.64063,-8.20117 112.14285,112.14285 0 0 1 8.42187,-7.39844 112.14285,112.14285 0 0 1 9.11914,-6.52148 112.14285,112.14285 0 0 1 9.72266,-5.57617 112.14285,112.14285 0 0 1 10.23242,-4.58008 112.14285,112.14285 0 0 1 10.63672,-3.53516 112.14285,112.14285 0 0 1 10.9375,-2.45508 112.14285,112.14285 0 0 1 11.12891,-1.34961 112.14285,112.14285 0 0 1 7.93164,-0.28125 112.14285,112.14285 0 0 1 11.19531,0.56055 112.14285,112.14285 0 0 1 11.08399,1.67578 112.14285,112.14285 0 0 1 10.86132,2.77149 112.14285,112.14285 0 0 1 10.5293,3.84375 112.14285,112.14285 0 0 1 10.09375,4.87695 112.14285,112.14285 0 0 1 9.55664,5.85937 112.14285,112.14285 0 0 1 8.92383,6.78321 112.14285,112.14285 0 0 1 8.20312,7.64062 112.14285,112.14285 0 0 1 5.64063,6.42188 112.14285,112.14285 0 0 0 -98.23047,-58.29102 z"
       style="fill:#242437;fill-opacity:1;stroke:none;stroke-width:0;stroke-miterlimit:4;stroke-dasharray:none;stroke-opacity:1" />
  </g>
</svg>
