<svg  width="30.2" height="34.4" viewBox="0 0 106.9 122" version="1.1">
	<g transform="translate(-72.2569,-85.638894)">
		<path d="m109.1 130.6 33.3 0 0 73.5-33.3 0z" fill="#8ab4eb"/>
		<path d="m75.8 138a49.9 48.8 0 0 1 25.2-42.4 49.9 48.8 0 0 1 50.2 0.4 49.9 48.8 0 0 1 24.4 42.8l-49.9-0.9z" fill="#8cb3e9"/>
		<path d="m124.6 138.1 12.1 0 0 65.9-12.1 0z" style="fill-opacity:0.7;fill:#709bd8"/>
		<path d="m109.4 137.8c2.6 0 32.5 0.2 32.5 0.2l-0.2 33.1c0 0-7.1-25.4-31.8-27.6z" style="fill-opacity:0.5;fill:#3d74c3"/>
		<ellipse cx="108.9" cy="107.2" rx="4.7" ry="4.5" fill="#fff"/>
	</g>
</svg>