<?xml version="1.0" encoding="UTF-8" standalone="no"?>
<svg
   xmlns:dc="http://purl.org/dc/elements/1.1/"
   xmlns:cc="http://creativecommons.org/ns#"
   xmlns:rdf="http://www.w3.org/1999/02/22-rdf-syntax-ns#"
   xmlns:svg="http://www.w3.org/2000/svg"
   xmlns="http://www.w3.org/2000/svg"
   version="1.1"
   id="svg2"
   viewBox="0 0 199.99999 199.99999"
   height="56.444443mm"
   width="56.444443mm">
  <defs
     id="defs4" />
  <metadata
     id="metadata7">
    <rdf:RDF>
      <cc:Work
         rdf:about="">
        <dc:format>image/svg+xml</dc:format>
        <dc:type
           rdf:resource="http://purl.org/dc/dcmitype/StillImage" />
        <dc:title></dc:title>
      </cc:Work>
    </rdf:RDF>
  </metadata>
  <g
     transform="translate(-240,-353.79077)"
     style="display:inline"
     id="layer3" />
  <g
     transform="translate(-240,-353.79077)"
     id="layer4">
    <circle
       r="100"
       cy="453.79077"
       cx="340"
       id="path4149"
       style="fill:#ca1616;fill-opacity:1;stroke:none;stroke-width:0;stroke-miterlimit:4;stroke-dasharray:none;stroke-opacity:1" />
    <path
       id="circle4153"
       d="m 338.41862,388.15823 a 62.418607,62.418607 0 0 0 -62.41835,62.41835 62.418607,62.418607 0 0 0 18.57099,44.35394 62.418607,62.418607 0 0 1 -1.6886,-5.08033 62.418607,62.418607 0 0 1 -1.36541,-6.08804 62.418607,62.418607 0 0 1 -0.7517,-6.19336 62.418607,62.418607 0 0 1 -0.15614,-4.41579 62.418607,62.418607 0 0 1 0.31048,-6.23148 62.418607,62.418607 0 0 1 0.93327,-6.16975 62.418607,62.418607 0 0 1 1.54334,-6.04447 62.418607,62.418607 0 0 1 2.13889,-5.86108 62.418607,62.418607 0 0 1 2.71449,-5.61778 62.418607,62.418607 0 0 1 3.26099,-5.32001 62.418607,62.418607 0 0 1 3.77666,-4.96593 62.418607,62.418607 0 0 1 4.25237,-4.56468 62.418607,62.418607 0 0 1 4.68814,-4.11801 62.418607,62.418607 0 0 1 5.07488,-3.62959 62.418607,62.418607 0 0 1 5.41079,-3.10485 62.418607,62.418607 0 0 1 5.69586,-2.54924 62.418607,62.418607 0 0 1 5.921,-1.9664 62.418607,62.418607 0 0 1 6.08804,-1.36722 62.418607,62.418607 0 0 1 6.19336,-0.75171 62.418607,62.418607 0 0 1 4.41578,-0.15615 62.418607,62.418607 0 0 1 6.23149,0.3123 62.418607,62.418607 0 0 1 6.16793,0.93145 62.418607,62.418607 0 0 1 6.04629,1.54335 62.418607,62.418607 0 0 1 5.86108,2.14072 62.418607,62.418607 0 0 1 5.61778,2.71265 62.418607,62.418607 0 0 1 5.32,3.26101 62.418607,62.418607 0 0 1 4.96595,3.77665 62.418607,62.418607 0 0 1 3.63685,3.3881 62.418607,62.418607 0 0 0 -58.4565,-40.64265 z"
       style="fill:#9b1111;fill-opacity:1;stroke:none;stroke-width:0;stroke-miterlimit:4;stroke-dasharray:none;stroke-opacity:1" />
  </g>
</svg>
